<svg width="20" height="20" viewBox="0 0 20 20" fill="none" xmlns="http://www.w3.org/2000/svg">
<g clip-path="url(#clip0_1351_162)">
<path d="M18.1667 4.64906L12.3333 0.712398C11.6452 0.244395 10.8322 -0.00585938 10 -0.00585938C9.16779 -0.00585937 8.35481 0.244395 7.66667 0.712398L1.83333 4.64906C1.26846 5.03088 0.805914 5.54547 0.486271 6.14771C0.166627 6.74995 -0.000345349 7.42142 5.36283e-07 8.10323V15.8332C0.00132375 16.9379 0.440735 17.9969 1.22185 18.778C2.00297 19.5592 3.062 19.9986 4.16667 19.9999H15.8333C16.938 19.9986 17.997 19.5592 18.7782 18.778C19.5593 17.9969 19.9987 16.9379 20 15.8332V8.10323C20.0003 7.42142 19.8334 6.74995 19.5137 6.14771C19.1941 5.54547 18.7315 5.03088 18.1667 4.64906ZM18.3333 15.8332C18.3333 16.4963 18.0699 17.1322 17.6011 17.601C17.1323 18.0698 16.4964 18.3332 15.8333 18.3332H4.16667C3.50363 18.3332 2.86774 18.0698 2.3989 17.601C1.93006 17.1322 1.66667 16.4963 1.66667 15.8332V8.10323C1.66664 7.694 1.76708 7.29101 1.95917 6.92966C2.15125 6.5683 2.4291 6.25963 2.76833 6.03073L8.60167 2.09406C9.01416 1.81383 9.50133 1.664 10 1.664C10.4987 1.664 10.9858 1.81383 11.3983 2.09406L17.2317 6.03073C17.5709 6.25963 17.8488 6.5683 18.0408 6.92966C18.2329 7.29101 18.3334 7.694 18.3333 8.10323V15.8332ZM10 5.83823C9.0102 5.83811 8.04264 6.13176 7.21987 6.682C6.3971 7.23223 5.75616 8.01428 5.37822 8.92909C5.00029 9.84389 4.90237 10.8503 5.09688 11.8208C5.29139 12.7913 5.76956 13.6822 6.47083 14.3807L7.99083 15.8674C8.52944 16.389 9.24981 16.6806 9.99959 16.6806C10.7494 16.6806 11.4697 16.389 12.0083 15.8674L13.5358 14.3741C14.2352 13.6748 14.7115 12.7838 14.9045 11.8138C15.0975 10.8439 14.9985 9.83844 14.62 8.92473C14.2415 8.01103 13.6005 7.23009 12.7782 6.68069C11.9558 6.13129 10.989 5.83811 10 5.83823ZM12.3633 13.1891L10.8425 14.6766C10.6165 14.8954 10.3142 15.0178 9.99959 15.0178C9.68496 15.0178 9.38268 14.8954 9.15667 14.6766L7.6425 13.1957C7.17663 12.7298 6.85928 12.1363 6.73053 11.4902C6.60177 10.844 6.6674 10.1742 6.91912 9.5653C7.17083 8.95641 7.59734 8.43578 8.14478 8.06916C8.69222 7.70254 9.33603 7.50638 9.99489 7.50545C10.6537 7.50452 11.2981 7.69886 11.8466 8.06393C12.3951 8.42901 12.823 8.94843 13.0765 9.5566C13.3299 10.1648 13.3974 10.8344 13.2705 11.4809C13.1436 12.1274 12.8279 12.7219 12.3633 13.1891ZM10.8333 10.8332C10.8333 10.998 10.7845 11.1592 10.6929 11.2962C10.6013 11.4332 10.4712 11.5401 10.3189 11.6031C10.1666 11.6662 9.99908 11.6827 9.83743 11.6506C9.67578 11.6184 9.52729 11.539 9.41075 11.4225C9.2942 11.3059 9.21483 11.1575 9.18268 10.9958C9.15053 10.8342 9.16703 10.6666 9.2301 10.5143C9.29317 10.3621 9.39998 10.2319 9.53703 10.1403C9.67407 10.0488 9.83518 9.9999 10 9.9999C10.221 9.9999 10.433 10.0877 10.5893 10.244C10.7455 10.4003 10.8333 10.6122 10.8333 10.8332Z" fill="#979AB8"/>
</g>
<defs>
<clipPath id="clip0_1351_162">
<rect width="20" height="20" fill="white"/>
</clipPath>
</defs>
</svg>
