<svg width="20" height="20" viewBox="0 0 20 20" fill="none" xmlns="http://www.w3.org/2000/svg">
<path d="M9.99973 13.3336C10.3878 13.3343 10.7706 13.2448 11.1181 13.0719L12.7847 12.2386C13.6342 11.8168 14.1701 10.9487 14.1664 10.0003V7.52776C14.1693 6.58015 13.6336 5.71319 12.7847 5.29194L11.1181 4.45862C10.4139 4.10862 9.58641 4.10862 8.88223 4.45862L7.21555 5.29194C6.36641 5.71296 5.83028 6.57999 5.83305 7.52776V10.0003C5.83 10.9481 6.36575 11.8154 7.21473 12.2369L8.88141 13.0703C9.22868 13.2437 9.61157 13.3338 9.99973 13.3336ZM7.49973 10.0003V7.52776C7.50106 7.44276 7.5154 7.35843 7.54223 7.27776L9.35891 8.18608C9.76235 8.38772 10.2372 8.38772 10.6406 8.18608L12.4573 7.27776C12.4841 7.35843 12.4984 7.44276 12.4998 7.52776V10.0003C12.5011 10.3164 12.3223 10.6058 12.0389 10.7461L10.3723 11.5794C10.1373 11.6957 9.86145 11.6957 9.62645 11.5794L7.95977 10.7461C7.67668 10.6056 7.49825 10.3163 7.49973 10.0003ZM15.8331 18.3336H13.5756L16.4814 15.6486C20.0613 12.0688 20.0613 6.26483 16.4816 2.68495C12.9018 -0.894932 7.09786 -0.894971 3.51797 2.68476C-0.0619091 6.26448 -0.0619875 12.0685 3.51778 15.6484C3.52563 15.6562 6.42391 18.3336 6.42391 18.3336H4.16641C3.70618 18.3336 3.33309 18.7067 3.33309 19.1669C3.33309 19.6271 3.70618 20.0002 4.16641 20.0002H15.8331C16.2933 20.0002 16.6664 19.6271 16.6664 19.1669C16.6664 18.7067 16.2933 18.3336 15.8331 18.3336ZM4.69641 3.86358C7.61891 0.927959 12.3679 0.917334 15.3035 3.83983C18.2391 6.76233 18.2497 11.5113 15.3272 14.4469L12.0064 17.5144C10.873 18.5827 9.10149 18.5765 7.97559 17.5002L4.69641 14.4702C1.772 11.5394 1.77204 6.79444 4.69641 3.86358Z" fill="#979AB8"/>
</svg>
